<svg className="kill" xmlns="http://www.w3.org/2000/svg" viewBox="0 0 181.94 169.99">
	<defs>
		<style>
			:root {
				--color: #1410cc
			}
			
			.color {fill: var(--color)}
			.dark {filter: brightness(0.6);}
			
			.blood {
				fill: #7d1e1e;
			}
			.white {
				fill: #fff;
			}
			.bone {
				stroke-width: 1px;
			}
			
			.cls-1 {
				fill: var(--color);
			}
			  
			.cls-2 {
				fill: #039605;
			}
			  
			.cls-3,
			.cls-6 {
				fill: none;
				stroke: #000;
				stroke-miterlimit: 10;
			}
			  
			.cls-3 {
				stroke-width: 5px;
			}
			  
			.cls-4 {
				fill: #94c9db;
			}
			  
			.cls-5 {
				fill: #4a646d;
			}
			  
			.cls-6 {
				stroke-width: 15px;
			}
			  
			.cls-7 {
				fill: #fff;
			}
		</style>
	</defs>
    <g>
        <path class="color dark" d="M5.06,97.57s13-42,80-43c24.1-.36,36.93,3.56,46,9,10,6,23,35,15,65-2.71,10.16-9.6,17.89-18,26-29,28-87,4-87,4S-12.94,141.57,5.06,97.57Z"/>
        <path class="cls-3" d="M5.17,97.91s13-42,80-43c24.11-.36,36.94,3.56,46,9,10,6,23,35,15,65-2.71,10.17-9.59,17.89-18,26-29,28-87,4-87,4S-12.83,141.91,5.17,97.91Z"/>
        <path class="blood" d="M29.75,112.8S19.93,91.42,59.93,79.42c0,0,48-10,60,15,0,0,13,18-2,45S41.57,142.18,29.75,112.8Z"/>
        <path class="cls-3" d="M30,113.29S20.17,91.91,60.17,79.91c0,0,48-10,60,15,0,0,13,18-2,45S41.81,142.68,30,113.29Z"/>
        <path class="white" d="M48.93,112.41s12.64-17.54,34-13c0,0,14,7,8,21-1.88,4.4-7.32,5.61-10.84,5.92a.92.92,0,0,0-.44,1.68c4.49,3,12.47,10.29,7.28,21.4-7,15-16,14-16,14s-16.64,6.46-28-8c-11-14,11-28,11-28s-15,3-17,20c-.7,6-27,2-24-16s24-19,24-19Z"/>
        <path class="cls-3" d="M49.17,111.91s12.64-17.54,34-13c0,0,14,7,8,21-1.88,4.4-7.32,5.61-10.84,5.92a.92.92,0,0,0-.44,1.68c4.49,3,12.47,10.29,7.28,21.4-7,15-16,14-16,14s-16.64,6.46-28-8c-11-14,11-28,11-28s-15,3-17,20c-.7,6-27,2-24-16s24-19,24-19Z"/>
        <path class="color dark" d="M149.25,42.69c10.28-1.37,40.78-1.61,29.57,46.25a22.24,22.24,0,0,1-2.55,6.27c-4,6.68-18.32,23.32-29.28,35.05,0,0,14-46-18-70,0,0,4.86-9.71,13.85-15.3A16.11,16.11,0,0,1,149.25,42.69Z"/>
        <path class="cls-3" d="M148.43,43.33C158.72,42,189.21,41.73,178,89.59a22.24,22.24,0,0,1-2.55,6.27c-4,6.68-18.32,23.31-29.28,35.05,0,0,14-46-18-70,0,0,4.86-9.71,13.85-15.3A16.28,16.28,0,0,1,148.43,43.33Z"/>
        <path class="color" d="M14.67,44.41s-3.4-16.24,41-35,73-.57,74.5,1.71c.6.91,1.42,2.24,2.21,3.51a5.93,5.93,0,0,1-.64,7.06L117.67,37.41l-51,3-21,7-31,4Z"/>
        <path class="color dark" d="M116.17,32.91s-51.51-4.06-78.5,7.5c-14,6-21.31,0-21-5,.12-.45-6.5,30.5.5,44.5,0,0,36.5-40.5,109-19,0,0,25.5-17.5,12-41.24,0,.24.9-.74-2.51-3.26S119.17,23.91,116.17,32.91Z"/>
        <path class="cls-3" d="M17.32,79.43s-8.15-25.52-.15-44.52c0,0,19-23,51-30s51-2,58,4c0,0,14,7.46,15,18.77a20.42,20.42,0,0,0,.43,2.58,22.09,22.09,0,0,1-2.38,15.65,55.4,55.4,0,0,1-13,15S70.47,37,17.32,79.43Z"/>
    </g>
</svg>